HIERARCHY
ROOT hip
{
  OFFSET 0 0 0
  CHANNELS 6 Xposition Yposition Zposition Zrotation Yrotation Xrotation
  JOINT abdomen
  {
    OFFSET 0 20.6881 -0.73152
    CHANNELS 3 Zrotation Xrotation Yrotation
    JOINT chest
    {
      OFFSET 0 11.7043 -0.48768
      CHANNELS 3 Zrotation Xrotation Yrotation
      JOINT neck
      {
        OFFSET 0 22.1894 -2.19456
        CHANNELS 3 Zrotation Xrotation Yrotation
        JOINT head
        {
          OFFSET -0.24384 7.07133 1.2192
          CHANNELS 3 Zrotation Xrotation Yrotation
          JOINT leftEye
          {
            OFFSET 4.14528 8.04674 8.04672
            CHANNELS 3 Zrotation Xrotation Yrotation
            End Site
            {
              OFFSET 1 0 0
            }
          }
          JOINT rightEye
          {
            OFFSET -3.6576 8.04674 8.04672
            CHANNELS 3 Zrotation Xrotation Yrotation
            End Site
            {
              OFFSET 1 0 0
            }
          }
        }
      }
      JOINT rCollar
      {
        OFFSET -2.68224 19.2634 -4.8768
        CHANNELS 3 Zrotation Xrotation Yrotation
        JOINT rShldr
        {
          OFFSET -8.77824 -1.95073 1.46304
          CHANNELS 3 Zrotation Xrotation Yrotation
          JOINT rForeArm
          {
            OFFSET -28.1742 -1.7115 0.48768
            CHANNELS 3 Zrotation Xrotation Yrotation
            JOINT rHand
            {
              OFFSET -22.5879 0.773209 7.07136
              CHANNELS 3 Zrotation Xrotation Yrotation
              JOINT rThumb1
              {
                OFFSET -1.2192 -0.487915 3.41376
                CHANNELS 3 Zrotation Xrotation Yrotation
                JOINT rThumb2
                {
                  OFFSET -3.37035 -0.52449 3.41376
                  CHANNELS 3 Zrotation Xrotation Yrotation
                  End Site
                  {
                    OFFSET -1.78271 -1.18214 1.43049
                  }
                }
              }
              JOINT rIndex1
              {
                OFFSET -7.75947 0.938293 5.60832
                CHANNELS 3 Zrotation Xrotation Yrotation
                JOINT rIndex2
                {
                  OFFSET -2.54057 -0.884171 1.56538
                  CHANNELS 3 Zrotation Xrotation Yrotation
                  End Site
                  {
                    OFFSET -1.62519 -0.234802 1.16502
                  }
                }
              }
              JOINT rMid1
              {
                OFFSET -8.24714 1.18213 3.41376
                CHANNELS 3 Zrotation Xrotation Yrotation
                JOINT rMid2
                {
                  OFFSET -3.10165 -0.590103 1.0647
                  CHANNELS 3 Zrotation Xrotation Yrotation
                  End Site
                  {
                    OFFSET -2.48547 -0.328903 0.83742
                  }
                }
              }
              JOINT rRing1
              {
                OFFSET -8.82822 0.546677 1.51678
                CHANNELS 3 Zrotation Xrotation Yrotation
                JOINT rRing2
                {
                  OFFSET -2.60934 -0.819778 -0.0198488
                  CHANNELS 3 Zrotation Xrotation Yrotation
                  End Site
                  {
                    OFFSET -2.33842 -0.294052 0.168128
                  }
                }
              }
              JOINT rPinky1
              {
                OFFSET -8.27202 -0.0477905 -0.4584
                CHANNELS 3 Zrotation Xrotation Yrotation
                JOINT rPinky2
                {
                  OFFSET -1.82734 -0.647385 -0.700984
                  CHANNELS 3 Zrotation Xrotation Yrotation
                  End Site
                  {
                    OFFSET -1.69225 -0.51767 -0.607171
                  }
                }
              }
            }
          }
        }
      }
      JOINT lCollar
      {
        OFFSET 2.68224 19.2634 -4.8768
        CHANNELS 3 Zrotation Xrotation Yrotation
        JOINT lShldr
        {
          OFFSET 8.77824 -1.95073 1.46304
          CHANNELS 3 Zrotation Xrotation Yrotation
          JOINT lForeArm
          {
            OFFSET 28.1742 -1.7115 0.48768
            CHANNELS 3 Zrotation Xrotation Yrotation
            JOINT lHand
            {
              OFFSET 22.5879 0.773209 7.07136
              CHANNELS 3 Zrotation Xrotation Yrotation
              JOINT lThumb1
              {
                OFFSET 1.2192 -0.487915 3.41376
                CHANNELS 3 Zrotation Xrotation Yrotation
                JOINT lThumb2
                {
                  OFFSET 3.37035 -0.52449 3.41376
                  CHANNELS 3 Zrotation Xrotation Yrotation
                  End Site
                  {
                    OFFSET 1.78271 -1.18214 1.43049
                  }
                }
              }
              JOINT lIndex1
              {
                OFFSET 7.75947 0.938293 5.60832
                CHANNELS 3 Zrotation Xrotation Yrotation
                JOINT lIndex2
                {
                  OFFSET 2.54057 -0.884171 1.56538
                  CHANNELS 3 Zrotation Xrotation Yrotation
                  End Site
                  {
                    OFFSET 1.62519 -0.234802 1.16502
                  }
                }
              }
              JOINT lMid1
              {
                OFFSET 8.24714 1.18213 3.41376
                CHANNELS 3 Zrotation Xrotation Yrotation
                JOINT lMid2
                {
                  OFFSET 3.10165 -0.590103 1.0647
                  CHANNELS 3 Zrotation Xrotation Yrotation
                  End Site
                  {
                    OFFSET 2.48547 -0.328903 0.83742
                  }
                }
              }
              JOINT lRing1
              {
                OFFSET 8.82822 0.546677 1.51678
                CHANNELS 3 Zrotation Xrotation Yrotation
                JOINT lRing2
                {
                  OFFSET 2.60934 -0.819778 -0.0198488
                  CHANNELS 3 Zrotation Xrotation Yrotation
                  End Site
                  {
                    OFFSET 2.33842 -0.294052 0.168128
                  }
                }
              }
              JOINT lPinky1
              {
                OFFSET 8.27202 -0.0477905 -0.4584
                CHANNELS 3 Zrotation Xrotation Yrotation
                JOINT lPinky2
                {
                  OFFSET 1.82734 -0.647385 -0.700984
                  CHANNELS 3 Zrotation Xrotation Yrotation
                  End Site
                  {
                    OFFSET 1.69225 -0.51767 -0.607171
                  }
                }
              }
            }
          }
        }
      }
    }
  }
  JOINT rButtock
  {
    OFFSET -8.77824 4.35084 1.2192
    CHANNELS 3 Zrotation Xrotation Yrotation
    JOINT rThigh
    {
      OFFSET 0 -1.70687 -2.19456
      CHANNELS 3 Zrotation Xrotation Yrotation
      JOINT rShin
      {
        OFFSET 0 -36.8199 0.73152
        CHANNELS 3 Zrotation Xrotation Yrotation
        JOINT rFoot
        {
          OFFSET 0.73152 -45.1104 -5.12064
          CHANNELS 3 Zrotation Xrotation Yrotation
          End Site
          {
            OFFSET -1.1221 -3.69964 12.103
          }
        }
      }
    }
  }
  JOINT lButtock
  {
    OFFSET 8.77824 4.35084 1.2192
    CHANNELS 3 Zrotation Xrotation Yrotation
    JOINT lThigh
    {
      OFFSET 0 -1.70687 -2.19456
      CHANNELS 3 Zrotation Xrotation Yrotation
      JOINT lShin
      {
        OFFSET 0 -36.8199 0.73152
        CHANNELS 3 Zrotation Xrotation Yrotation
        JOINT lFoot
        {
          OFFSET -0.73152 -45.1104 -5.12064
          CHANNELS 3 Zrotation Xrotation Yrotation
          End Site
          {
            OFFSET 1.1221 -3.69964 12.103
          }
        }
      }
    }
  }
}
MOTION
Frames:	5
Frame Time:	0.00833333
12.9863 75.1092 -161.083 0.0 0.0 0.0 -0.555337 -0.00305886 -0.0158853 -0.153307 -0.00476083 -0.026563 4.69438e-15 7.95139e-16 1.05604e-16 1.38839e-14 9.54166e-15 3.18366e-16 -0.0 0.0 0.0 -0.0 0.0 0.0 2.43392e-15 8.92978e-18 1.98785e-16 4.92833e-14 8.07563e-17 2.18663e-15 8.37877e-13 -2.39337e-13 3.18055e-15 9.51547e-12 2.9845e-13 2.51264e-13 2.24556e-11 1.31198e-13 5.62958e-13 3.87662e-11 2.22639e-13 9.75635e-13 2.24595e-11 1.31198e-13 5.59778e-13 7.73091 5.47488 0.417314 2.24536e-11 1.309e-13 5.69319e-13 2.90554 0.965183 0.102902 2.24601e-11 1.30999e-13 5.65344e-13 10.2786 0.731801 0.0259123 2.24493e-11 1.33186e-13 5.725e-13 2.22167 -0.733487 -0.20892 2.23768e-15 8.54153e-18 -9.93923e-17 4.65649e-14 3.85145e-16 5.96354e-16 8.26497e-13 2.61203e-13 2.22639e-14 9.52111e-12 -1.9471e-13 2.44903e-13 2.24494e-11 1.43192e-13 5.62958e-13 3.87789e-11 2.44903e-13 9.87562e-13 2.24456e-11 1.41932e-13 5.7568e-13 -7.73091 5.47488 -0.417314 2.24496e-11 1.42926e-13 5.62958e-13 -2.90554 0.965183 -0.102902 2.24482e-11 1.43125e-13 5.67729e-13 -10.2786 0.731801 -0.0259123 2.24579e-11 1.44715e-13 5.56597e-13 -2.22167 -0.733487 0.20892 -2.03217e-16 0.0 -3.88251e-19 0.0644104 -2.35905 -0.0223811 -0.00798365 -1.27853 -0.0684579 -0.484699 3.63779 0.128967 2.03217e-16 0.0 3.88251e-19 -0.910369 -4.50048 0.0764529 0.00202159 2.60027 0.0092747 0.49291 1.9005 -0.0947779
12.93 70.9065 -165.849 0.1666 -1.4672 18.0581 -2.10305 -1.19958 -0.617514 0.25939 -1.815 -0.152377 -1.70731 -0.0108535 -0.898027 2.48949 -3.61363 -1.0172 -0.0 0.0 0.0 -0.0 0.0 0.0 -4.94094e-14 4.24598e-14 1.54683e-14 21.5901 11.0825 -3.41243 -12.8219 -9.82921 13.8075 0.0254885 3.54308 0.494515 1.79934e-10 -4.07673e-10 6.95077e-11 3.11398e-10 -7.02162e-10 1.18283e-10 1.79937e-10 -4.07672e-10 6.95028e-11 7.73091 5.47488 0.417314 1.79932e-10 -4.07673e-10 6.95115e-11 2.90554 0.965183 0.102902 1.7994e-10 -4.07673e-10 6.95083e-11 10.2786 0.731801 0.0259123 1.79929e-10 -4.07672e-10 6.95156e-11 2.22167 -0.733487 -0.20892 -4.95428e-14 4.24589e-14 1.52144e-14 -18.6984 14.9915 2.40478 13.7808 -10.8782 -14.1693 -0.00589598 -1.71139 0.240138 2.95752e-10 2.3757e-10 -1.05602e-10 5.11212e-10 4.15532e-10 -1.80103e-10 2.9575e-10 2.3757e-10 -1.05589e-10 -7.73091 5.47488 -0.417314 2.95752e-10 2.37568e-10 -1.056e-10 -2.90554 0.965183 -0.102902 2.95751e-10 2.37568e-10 -1.05598e-10 -10.2786 0.731801 -0.0259123 2.95761e-10 2.37569e-10 -1.05606e-10 -2.22167 -0.733487 0.20892 -2.03217e-16 0.0 -3.88251e-19 -1.78347 -22.3647 0.0879455 0.0505731 26.543 0.293079 -0.923431 1.14309 -4.57018 2.03217e-16 0.0 3.88251e-19 -4.86961 -13.5552 0.63372 -0.128792 18.7548 -0.275593 1.02032 -8.02146 2.35384
12.8571 70.1425 -163.529 1.3298 -1.4336 17.871 -3.76128 -2.45803 -1.19345 0.674562 -3.74581 -0.270717 -3.52958 -0.010957 -1.86354 4.98559 -7.41155 -2.13499 -0.0 0.0 0.0 -0.0 0.0 0.0 -1.0582e-13 8.61777e-14 3.22621e-14 45.9448 22.6747 -7.40711 -21.1597 -18.2131 29.5727 -0.0145368 7.28104 1.02268 3.64012e-10 -8.53345e-10 1.29184e-10 6.2988e-10 -1.46931e-09 2.19299e-10 3.64014e-10 -8.53343e-10 1.29177e-10 7.73091 5.47488 0.417314 3.6401e-10 -8.53344e-10 1.29185e-10 2.90554 0.965183 0.102902 3.6402e-10 -8.53344e-10 1.29182e-10 10.2786 0.731801 0.0259123 3.64008e-10 -8.53345e-10 1.2919e-10 2.22167 -0.733487 -0.20892 -1.05886e-13 8.61764e-14 3.20571e-14 -40.1175 30.7293 5.74853 22.3955 -20.0534 -30.6349 0.00357076 -3.53957 0.497398 5.82537e-10 5.49155e-10 -2.06012e-10 1.00688e-09 9.59118e-10 -3.51103e-10 5.82537e-10 5.49157e-10 -2.05998e-10 -7.73091 5.47488 -0.417314 5.82536e-10 5.49152e-10 -2.06008e-10 -2.90554 0.965183 -0.102902 5.82535e-10 5.4915e-10 -2.06008e-10 -10.2786 0.731801 -0.0259123 5.82546e-10 5.49151e-10 -2.06014e-10 -2.22167 -0.733487 0.20892 -2.03217e-16 0.0 -3.88251e-19 -3.62425 -43.4049 0.254504 -0.531682 56.1479 1.10119 -1.8391 -1.45673 -9.59707 2.03217e-16 0.0 3.88251e-19 -8.86583 -23.2826 1.29531 -0.0507095 35.9138 -0.67053 2.53227 -18.4039 5.14577
12.7294 69.5609 -161.13 2.1023 -1.498 17.8509 -5.27396 -3.59101 -1.82395 1.06084 -5.43537 -0.405599 -5.12296 -0.0325286 -2.69408 7.07781 -10.8271 -3.10077 -0.0 0.0 0.0 -0.0 0.0 0.0 -1.53096e-13 1.27361e-13 4.60074e-14 69.3384 32.7298 -11.968 -24.7374 -22.4854 45.0093 -0.109718 10.626 1.50655 4.94892e-10 -1.22328e-09 2.07397e-10 8.56663e-10 -2.10693e-09 3.52898e-10 4.94892e-10 -1.22328e-09 2.07389e-10 7.73091 5.47488 0.417314 4.94889e-10 -1.22328e-09 2.07396e-10 2.90554 0.965183 0.102902 4.949e-10 -1.22328e-09 2.07394e-10 10.2786 0.731801 0.0259123 4.94888e-10 -1.22328e-09 2.07402e-10 2.22167 -0.733487 -0.20892 -1.53104e-13 1.2736e-13 4.5842e-14 -61.1485 44.5906 9.80922 25.6432 -24.4161 -46.9682 0.0254951 -5.13381 0.722994 8.42358e-10 7.12424e-10 -3.17932e-10 1.45608e-09 1.24611e-09 -5.42286e-10 8.42359e-10 7.12427e-10 -3.17918e-10 -7.73091 5.47488 -0.417314 8.42357e-10 7.1242e-10 -3.17926e-10 -2.90554 0.965183 -0.102902 8.42356e-10 7.12417e-10 -3.17929e-10 -10.2786 0.731801 -0.0259123 8.42367e-10 7.12418e-10 -3.17933e-10 -2.22167 -0.733487 0.20892 -2.03217e-16 0.0 -3.88251e-19 -5.02979 -62.3747 0.622661 -6.14128 82.1328 6.76188 -3.01827 -3.72185 -13.9953 2.03217e-16 0.0 3.88251e-19 -12.176 -31.6516 1.99219 0.334718 51.0575 -1.2751 4.88028 -27.6478 8.11347
12.5062 69.004 -158.759 2.3369 -1.4736 18.0184 -6.38259 -4.41095 -2.58868 1.38775 -6.52185 -0.580663 -6.145 -0.107734 -3.18721 8.45303 -13.3015 -3.63761 -0.0 0.0 0.0 -0.0 0.0 0.0 -1.77536e-13 1.62209e-13 5.21313e-14 87.0445 39.3828 -16.3789 -25.8709 -23.1079 56.237 -0.211589 12.9917 1.85813 4.92773e-10 -1.40388e-09 3.31954e-10 8.54196e-10 -2.42071e-09 5.67959e-10 4.92773e-10 -1.40388e-09 3.31945e-10 7.73091 5.47488 0.417314 4.9277e-10 -1.40388e-09 3.31951e-10 2.90554 0.965183 0.102902 4.92781e-10 -1.40388e-09 3.31951e-10 10.2786 0.731801 0.0259123 4.92769e-10 -1.40388e-09 3.31958e-10 2.22167 -0.733487 -0.20892 -1.77505e-13 1.62208e-13 5.19822e-14 -76.7527 54.2305 12.9568 26.4471 -24.6403 -58.7062 0.0465162 -6.14359 0.866782 1.03477e-09 5.04904e-10 -4.5863e-10 1.78909e-09 8.91599e-10 -7.83928e-10 1.03477e-09 5.04906e-10 -4.58617e-10 -7.73091 5.47488 -0.417314 1.03477e-09 5.04899e-10 -4.58623e-10 -2.90554 0.965183 -0.102902 1.03477e-09 5.04896e-10 -4.58627e-10 -10.2786 0.731801 -0.0259123 1.03478e-09 5.04897e-10 -4.5863e-10 -2.22167 -0.733487 0.20892 -2.03217e-16 0.0 -3.88251e-19 -5.26719 -76.1682 1.64464 -172.45 80.65 173.024 -3.98452 -5.29407 -16.7767 2.03217e-16 0.0 3.88251e-19 -14.2636 -36.6379 2.5329 0.981555 61.1675 -2.07478 7.32302 -34.2431 10.7302
